<svg xmlns="http://www.w3.org/2000/svg" viewBox="0 0 64 64">
  <title>APath: walkable map and route</title>
  <rect x="2" y="2" width="60" height="60" rx="11" fill="#17633f"/>
  <rect x="6" y="6" width="52" height="52" rx="7" fill="#fbfdfb"/>
  <path d="M8 8H32V32H56V56H44V44H20V32H8Z" fill="#76cf8d"/>
  <path d="M20 8V56M32 8V56M44 8V56M8 20H56M8 32H56M8 44H56" fill="none" stroke="#d0e3d5" stroke-width="1"/>
  <path d="M8 8L32 32M20 32L44 44M44 32L56 56" fill="none" stroke="#258052" stroke-width="1.3"/>
  <path d="M14 14H26V38H50V50" fill="none" stroke="#fbfdfb" stroke-width="6" stroke-linecap="round" stroke-linejoin="round"/>
  <path d="M14 14H26V38H50V50" fill="none" stroke="#215dc4" stroke-width="3.5" stroke-linecap="round" stroke-linejoin="round"/>
  <g fill="#eb4949" stroke="#fbfdfb" stroke-width="2">
    <circle cx="14" cy="14" r="4.5"/>
    <circle cx="50" cy="50" r="4.5"/>
  </g>
</svg>
